{"title":"Death in Holy Orders S01","uid":15686648,"size":1304888711,"categoryP":"video","categoryS":"tv_shows","magnet":"?xt=urn:btih:0ceb7b417c77f006ed2c3613dfa773ae07d1feaa&amp;dn=Death+in+Holy+Orders+S01&amp;tr=udp%3A%2F%2Ftracker.leechers-paradise.org%3A6969&amp;tr=udp%3A%2F%2Fzer0day.ch%3A1337&amp;tr=udp%3A%2F%2Fopen.demonii.com%3A1337&amp;tr=udp%3A%2F%2Ftracker.coppersurfer.tk%3A6969&amp;tr=udp%3A%2F%2Fexodus.desync.com%3A6969","seeders":4,"leechers":2,"uploader":"RedBaron58","files":2,"time":1472352326,"description":"Death in Holy Orders S01 (PD James MiniSeries 2003) DVDrip x264 mp4\r\n  \nhttp://www.imdb.com/title/tt0346847/\r\n\r\nThank you for your kind comments and feedback on my other torrents, your feedback is welcome.\r\n\r\nAbout the Series:  \r\nDetective AdamDalgliesh visits Saint Anselm's in a semi-official capacity to follow up the \r\ndeath of a student some time previously as his father was not satisfied with the verdict. \r\nWhilst there, a visiting archdeacon is murdered. Dalgliesh is assigned the investigation, \r\nsummoning DI Miskin and DI Tarrant from London to assist\r\nStarring Martin Shaw, Jesse Spencer and Alan Howard,\r\n\r\n\r\nTechnical: (Both episodes are encoded to the same settings)\r\n\r\nGeneral\r\nComplete name                            : I:Death in Holy Orders S01P D James - Death In Holy Orders S01E01 x264 RB58.mp4\r\nFormat                                   : MPEG-4\r\nFormat profile                           : Base Media / Version 2\r\nCodec ID                                 : mp42\r\nFile size                                : 609 MiB\r\nDuration                                 : 1h 25mn\r\nOverall bit rate mode                    : Variable\r\nOverall bit rate                         : 1 000 Kbps\r\nEncoded date                             : UTC 2016-08-19 18:43:25\r\nTagged date                              : UTC 2016-08-19 18:46:35\r\nWriting application                      : HandBrake 0.9.8 2012071700\r\n\r\nVideo\r\nID                                       : 1\r\nFormat                                   : AVC\r\nFormat/Info                              : Advanced Video Codec\r\nFormat profile                           :   \r\nFormat settings, CABAC                   : Yes\r\nFormat settings, ReFrames                : 4 frames\r\nCodec ID                                 : avc1\r\nCodec ID/Info                            : Advanced Video Coding\r\nDuration                                 : 1h 25mn\r\nBit rate                                 : 900 Kbps\r\nWidth                                    : 718 pixels\r\nHeight                                   : 576 pixels\r\nDisplay aspect ratio                     : 16:9\r\nFrame rate mode                          : Constant\r\nFrame rate                               : 25.000 fps\r\nColor space                              : YUV\r\nChroma subsampling                       : 4:2:0\r\nBit depth                                : 8 bits\r\nScan type                                : Progressive\r\nBits/(Pixel*Frame)                       : 0.087\r\nStream size                              : 548 MiB (90%)\r\nWriting library                          : x264 core 120\r\nEncoding settings                        : cabac=1 / ref=1 / deblock=1:0:0\r\nEncoded date                             : UTC 2016-08-19 18:43:25\r\nTagged date                              : UTC 2016-08-19 18:46:35\r\nColor range                              : Limited\r\nColor primaries                          : BT.601 NTSC\r\nTransfer characteristics                 : BT.709\r\nMatrix coefficients                      : BT.601\r\n\r\nAudio\r\nID                                       : 2\r\nFormat                                   : AAC\r\nFormat/Info                              : Advanced Audio Codec\r\nFormat profile                           : LC\r\nCodec ID                                 : 40\r\nDuration                                 : 1h 25mn\r\nBit rate mode                            : Variable\r\nBit rate                                 : 96.0 Kbps\r\nMaximum bit rate                         : 131 Kbps\r\nChannel(s)                               : 2 channels\r\nChannel positions                        : Front: L R\r\nSampling rate                            : 48.0 KHz\r\nCompression mode                         : Lossy\r\nStream size                              : 58.4 MiB (10%)\r\nTitle                                    : Stereo\r\nLanguage                                 : English","torrent":{"xt":"urn:btih:0ceb7b417c77f006ed2c3613dfa773ae07d1feaa","amp;dn":"Death+in+Holy+Orders+S01","amp;tr":["udp%3A%2F%2Ftracker.leechers-paradise.org%3A6969","udp%3A%2F%2Fzer0day.ch%3A1337","udp%3A%2F%2Fopen.demonii.com%3A1337","udp%3A%2F%2Ftracker.coppersurfer.tk%3A6969","udp%3A%2F%2Fexodus.desync.com%3A6969"],"infoHash":"0ceb7b417c77f006ed2c3613dfa773ae07d1feaa","infoHashBuffer":{"type":"Buffer","data":[12,235,123,65,124,119,240,6,237,44,54,19,223,167,115,174,7,209,254,170]},"announce":[],"urlList":[]}}